<?xml version="1.0" standalone="no"?>
<!DOCTYPE svg PUBLIC "-//W3C//DTD SVG 20010904//EN"
 "http://www.w3.org/TR/2001/REC-SVG-20010904/DTD/svg10.dtd">
<svg version="1.0" xmlns="http://www.w3.org/2000/svg"
 width="542.000000pt" height="542.000000pt" viewBox="0 0 542.000000 542.000000"
 preserveAspectRatio="xMidYMid meet">
<metadata>
Created by potrace 1.11, written by Peter Selinger 2001-2013
</metadata>
<g transform="translate(0.000000,542.000000) scale(0.100000,-0.100000)"
fill="#000000" stroke="none">
<path d="M1955 4330 c-38 -22 -71 -43 -73 -48 -4 -14 179 -97 356 -160 l83
-30 29 59 c17 32 30 65 30 73 0 9 -51 34 -142 69 -128 49 -209 78 -212 76 -1
0 -32 -18 -71 -39z"/>
<path d="M1724 4236 c-59 -27 -60 -28 -69 -78 -5 -28 -4 -39 6 -42 85 -26 191
-60 267 -87 51 -18 95 -30 97 -27 3 3 10 19 15 37 8 30 7 32 -38 55 -79 41
-166 83 -186 90 -12 4 -16 11 -11 24 19 45 18 52 -6 51 -13 0 -47 -11 -75 -23z"/>
<path d="M1846 4234 c-11 -28 -7 -32 77 -75 45 -23 89 -46 97 -50 35 -19 217
-97 242 -103 23 -5 27 -2 37 26 6 17 10 32 9 32 -61 29 -105 48 -153 65 -33
13 -80 32 -105 43 -25 11 -79 33 -122 49 -65 24 -77 26 -82 13z"/>
<path d="M2375 4152 c-16 -36 -31 -68 -33 -72 -3 -8 103 -57 153 -69 44 -11
125 -59 166 -98 l26 -24 48 67 48 67 -29 23 c-31 26 -297 160 -329 166 -16 4
-26 -7 -50 -60z"/>
<path d="M1597 4194 c-3 -3 -109 -12 -157 -13 -20 -1 -29 -9 -40 -38 -8 -21
-16 -41 -18 -44 -2 -4 21 -21 50 -39 29 -17 78 -56 108 -85 45 -44 73 -61 157
-93 91 -36 209 -106 255 -153 10 -10 29 -42 42 -72 13 -30 28 -57 33 -60 5 -3
57 -8 116 -11 l106 -5 7 35 c4 20 17 48 29 63 21 24 55 126 55 164 0 15 -51
37 -142 60 -53 14 -58 14 -63 -2 -19 -60 -87 -81 -108 -33 -16 37 -25 42 -81
42 -64 0 -340 99 -350 125 -3 8 4 46 15 84 10 39 19 72 19 74 0 4 -29 5 -33 1z"/>
<path d="M1635 4100 c-2 -4 -9 -19 -14 -33 -9 -24 -7 -28 17 -41 16 -8 59 -24
97 -37 39 -12 95 -32 125 -45 48 -19 62 -21 103 -12 36 7 47 14 47 29 0 12
-10 21 -27 25 -15 4 -99 33 -185 65 -87 31 -160 53 -163 49z"/>
<path d="M2054 4046 c-3 -14 -4 -32 -2 -42 3 -17 77 -53 211 -102 l58 -22 10
27 c5 16 10 32 12 37 1 5 -15 15 -35 22 -20 7 -52 19 -70 27 -18 8 -40 17 -48
20 -8 3 -41 17 -72 31 l-58 26 -6 -24z"/>
<path d="M1321 4014 c-22 -24 -44 -44 -49 -44 -12 0 -53 -67 -58 -96 -3 -14 4
-25 19 -33 12 -7 40 -36 61 -64 l39 -50 56 60 c31 33 74 80 96 105 l41 46 -21
25 c-11 13 -48 40 -82 60 l-61 35 -41 -44z"/>
<path d="M2317 4028 l-14 -33 50 -23 c80 -36 101 -38 120 -9 l16 25 -67 27
c-37 15 -72 31 -79 37 -9 7 -16 1 -26 -24z"/>
<path d="M2490 3955 l-22 -23 24 -15 c12 -7 35 -21 51 -30 15 -10 38 -24 51
-32 22 -15 24 -14 41 12 17 26 17 27 -6 46 -13 10 -45 30 -70 43 l-46 23 -23
-24z"/>
<path d="M2032 3934 c-11 -19 15 -74 35 -74 12 0 53 46 53 60 0 9 -46 30 -65
30 -8 0 -18 -7 -23 -16z"/>
<path d="M2351 3910 c-10 -30 -9 -32 27 -47 98 -40 130 -57 180 -94 30 -23 73
-61 96 -85 l42 -45 21 30 22 29 -27 18 c-15 10 -59 48 -98 85 -70 66 -159 120
-220 133 -29 6 -33 4 -43 -24z"/>
<path d="M1446 3821 c-48 -54 -86 -102 -86 -106 0 -12 103 -105 116 -105 13 0
84 103 84 122 0 6 5 27 12 45 13 37 34 46 23 11 -3 -13 -10 -37 -14 -55 -5
-17 -30 -59 -55 -92 -56 -72 -52 -73 -159 32 -127 124 -104 123 -186 11 -56
-76 -69 -99 -60 -110 6 -8 17 -14 24 -14 8 0 15 -3 17 -7 2 -5 24 -18 51 -30
26 -13 47 -29 47 -36 0 -21 40 -54 48 -40 9 14 148 -235 145 -259 -4 -26 29
-23 54 5 11 12 35 45 53 72 64 96 121 155 179 185 31 15 99 50 152 77 l96 48
-19 57 c-14 43 -31 68 -64 97 -55 48 -160 103 -239 126 -33 9 -74 28 -92 41
-17 13 -34 24 -37 24 -3 0 -43 -44 -90 -99z"/>
<path d="M2646 3853 l-19 -26 62 -60 63 -61 34 37 34 36 -57 39 c-94 63 -95
64 -117 35z"/>
<path d="M2870 3818 c-12 -29 -35 -69 -51 -90 -33 -43 -34 -42 71 -86 107 -45
190 -70 196 -61 3 5 13 33 24 64 l19 54 -113 86 c-62 47 -115 85 -118 85 -3 0
-16 -24 -28 -52z"/>
<path d="M2355 3804 c-3 -20 -5 -37 -3 -39 2 -1 30 -14 62 -29 46 -21 61 -24
68 -14 22 33 29 51 25 63 -5 10 -115 55 -138 55 -4 0 -10 -16 -14 -36z"/>
<path d="M2520 3745 c0 -8 9 -19 19 -25 11 -5 41 -28 66 -50 53 -46 82 -44 38
2 -27 29 -106 88 -117 88 -3 0 -6 -7 -6 -15z"/>
<path d="M449 3736 c-2 -3 -31 -7 -64 -11 -33 -3 -65 -11 -71 -18 -7 -6 -67
-109 -134 -227 -67 -118 -133 -234 -146 -257 l-24 -41 85 -51 c46 -28 88 -51
92 -51 4 1 64 91 132 201 68 111 129 203 135 205 39 13 84 9 113 -8 34 -20 32
-20 198 -2 92 10 117 17 104 27 -2 2 -87 54 -189 114 -178 106 -221 129 -231
119z"/>
<path d="M2304 3683 c-17 -32 -30 -69 -30 -82 1 -21 8 -26 56 -38 30 -8 65
-19 77 -25 17 -8 29 -8 48 0 30 14 32 33 5 57 -31 28 -34 53 -9 74 l22 17 -45
22 c-86 40 -89 39 -124 -25z"/>
<path d="M2495 3709 c-4 -6 19 -34 51 -64 47 -43 62 -51 76 -44 10 5 18 11 18
13 0 6 -122 106 -130 106 -5 0 -12 -5 -15 -11z"/>
<path d="M3132 3622 c-12 -31 -31 -95 -42 -140 l-19 -84 24 -38 c23 -36 33
-63 39 -103 1 -9 4 -19 7 -22 8 -7 91 173 94 205 1 8 17 37 36 63 l33 48 -29
27 c-17 15 -50 44 -75 64 l-46 37 -22 -57z"/>
<path d="M2741 3617 c-35 -45 -38 -54 -26 -66 8 -8 16 -13 18 -10 1 2 19 25
40 51 41 51 44 63 22 72 -10 3 -28 -13 -54 -47z"/>
<path d="M2453 3644 c-3 -10 0 -22 8 -28 17 -12 49 -57 49 -67 0 -4 -11 -10
-25 -13 -32 -8 -32 -21 0 -42 29 -19 36 -15 75 42 34 49 35 47 -31 97 -41 31
-67 34 -76 11z"/>
<path d="M2684 3612 c-59 -39 -85 -62 -120 -108 l-32 -40 25 -22 c14 -12 26
-22 28 -22 2 0 29 42 61 93 31 50 64 100 72 110 20 22 15 21 -34 -11z"/>
<path d="M2823 3628 c-23 -31 -23 -38 4 -51 56 -29 69 -29 81 -2 16 35 17 34
-23 51 -42 17 -50 17 -62 2z"/>
<path d="M2930 3580 c-13 -25 -13 -36 3 -38 26 -2 113 -20 130 -27 13 -5 17
-2 17 13 0 21 -4 23 -87 52 -52 18 -53 18 -63 0z"/>
<path d="M2768 3558 c-23 -28 -23 -30 7 -58 l26 -24 24 29 c31 38 31 41 -5 60
-36 18 -32 19 -52 -7z"/>
<path d="M2640 3474 c-42 -64 -43 -66 -24 -84 10 -11 55 -41 100 -68 67 -41
84 -48 100 -38 10 6 44 11 74 11 107 2 163 55 172 160 l3 39 -60 17 c-94 27
-102 25 -116 -22 -7 -23 -18 -43 -25 -46 -13 -5 -84 28 -105 50 -18 17 -62 47
-69 47 -4 0 -26 -30 -50 -66z"/>
<path d="M2846 3518 c-18 -25 -20 -44 -7 -53 9 -5 41 47 41 67 0 16 -19 8 -34
-14z"/>
<path d="M3237 3379 c-60 -125 -77 -171 -77 -205 0 -34 5 -46 21 -54 25 -14
24 -14 37 30 13 44 105 266 131 319 l20 39 -24 16 c-13 9 -26 16 -28 16 -1 0
-38 -72 -80 -161z"/>
<path d="M2128 3519 c-2 -8 -6 -34 -7 -59 -1 -25 -11 -78 -22 -119 -10 -40
-16 -85 -13 -100 9 -44 27 -71 45 -71 20 0 62 48 54 61 -3 4 6 27 20 49 l26
42 -21 18 c-25 22 -22 50 12 127 11 25 17 47 14 50 -3 3 -27 8 -54 11 -36 3
-50 1 -54 -9z"/>
<path d="M2015 3509 c-22 -5 -53 -16 -70 -23 -16 -8 -48 -22 -70 -31 -22 -9
-50 -23 -62 -30 l-22 -15 32 -57 c18 -32 65 -91 106 -130 71 -70 75 -73 122
-73 27 0 49 2 49 5 0 2 -9 23 -21 45 -22 43 -22 50 5 158 9 35 18 86 20 113 3
47 2 49 -23 48 -14 -1 -44 -5 -66 -10z"/>
<path d="M2240 3465 c-24 -53 -36 -105 -24 -105 12 0 85 136 77 144 -16 16
-34 2 -53 -39z"/>
<path d="M1052 3464 c-42 -42 -62 -49 -163 -59 -41 -3 -121 -12 -178 -18
l-103 -12 -116 -195 c-283 -479 -334 -566 -335 -574 -2 -11 162 -114 183 -115
9 -1 87 117 202 307 103 169 193 315 200 324 12 17 18 15 81 -23 37 -22 67
-42 67 -43 0 -2 -11 -24 -25 -49 -14 -24 -23 -51 -20 -59 4 -9 -59 -121 -155
-277 -89 -145 -159 -265 -156 -268 3 -3 1 -14 -4 -24 -8 -14 -3 -22 26 -39 19
-12 37 -21 39 -19 2 2 96 162 210 354 113 193 219 364 235 380 80 84 100 106
100 114 0 9 39 36 114 79 22 12 41 24 43 26 3 2 -7 26 -20 53 -28 54 -99 133
-121 133 -7 0 -25 9 -40 21 l-26 21 -38 -38z"/>
<path d="M2312 3487 c-22 -28 -74 -146 -68 -156 4 -5 -2 -24 -13 -42 -11 -18
-18 -36 -15 -41 13 -20 36 -3 85 65 29 39 65 86 81 103 l29 31 -23 15 c-52 33
-65 38 -76 25z"/>
<path d="M3352 3423 c-17 -38 -38 -87 -46 -110 -8 -22 -28 -73 -45 -111 -17
-39 -31 -75 -31 -81 0 -16 36 -28 110 -36 36 -4 107 -20 158 -37 91 -29 136
-33 138 -13 1 28 16 174 20 197 4 23 -8 37 -104 116 -60 49 -121 101 -137 116
-15 14 -29 26 -30 26 -1 0 -16 -30 -33 -67z"/>
<path d="M2375 3383 c-22 -26 -59 -72 -81 -102 l-41 -54 40 -39 c37 -35 42
-37 51 -21 6 10 37 67 69 128 54 101 57 110 41 122 -28 20 -37 16 -79 -34z"/>
<path d="M1729 3377 c-19 -12 -60 -61 -92 -109 l-58 -86 20 -39 c27 -52 37
-113 21 -123 -7 -4 -14 -27 -16 -51 l-4 -44 47 -19 c26 -11 63 -34 82 -53 19
-18 39 -33 43 -33 4 0 8 -16 8 -35 0 -32 3 -35 29 -35 26 0 30 5 45 51 10 28
15 57 13 63 -3 6 -24 25 -48 41 -110 75 -120 137 -37 229 17 18 18 18 70 -2
87 -34 98 -35 119 -16 19 17 18 19 -46 81 -36 35 -85 95 -110 133 -25 39 -46
70 -48 70 -2 0 -19 -10 -38 -23z"/>
<path d="M2464 3353 c-52 -81 -132 -236 -127 -249 10 -27 36 -9 77 53 23 35
60 92 83 128 l42 64 -22 16 c-29 20 -32 19 -53 -12z"/>
<path d="M3044 3342 c-14 -25 -32 -36 -83 -53 -38 -12 -79 -19 -97 -16 -38 6
-57 -9 -44 -34 8 -13 18 -16 47 -12 31 4 50 -2 101 -31 35 -20 69 -36 76 -36
7 0 21 19 31 42 10 24 20 37 22 31 2 -6 -3 -26 -12 -43 -19 -36 -20 -34 23
-48 28 -9 32 -9 33 6 2 29 -2 56 -10 77 -5 11 -16 41 -25 66 -9 25 -22 54 -30
64 -12 17 -14 16 -32 -13z"/>
<path d="M4989 3360 c-8 -5 -38 -12 -65 -16 -53 -7 -107 -26 -129 -46 -7 -7
-59 -49 -114 -93 -54 -44 -101 -87 -104 -96 -2 -9 -15 -19 -28 -22 -13 -3 -67
-15 -120 -27 l-96 -22 -73 22 c-39 12 -75 18 -79 14 -15 -18 -50 -124 -41
-124 6 0 10 -7 10 -15 0 -25 -33 -85 -47 -85 -15 0 -18 -26 -3 -35 15 -9 12
-25 -5 -25 -12 0 -35 -28 -35 -43 0 -3 13 -10 29 -15 27 -9 30 -8 36 15 4 18
11 24 23 20 9 -2 23 -6 30 -8 10 -3 28 33 59 111 24 63 48 119 52 123 5 5 46
-3 92 -17 46 -13 117 -34 157 -46 40 -11 70 -25 67 -31 -4 -5 1 -10 9 -10 9
-1 28 -2 44 -3 15 -1 45 -6 68 -10 37 -7 43 -4 84 32 l44 39 -47 63 c-25 35
-44 67 -41 71 10 17 34 9 51 -18 10 -16 21 -32 26 -38 4 -5 16 -22 28 -37 l20
-28 22 21 c12 11 34 28 50 37 15 9 27 22 27 30 0 7 -11 63 -26 124 -17 77 -22
114 -15 121 6 6 13 8 16 5 3 -3 17 -60 32 -126 24 -111 28 -121 47 -117 12 2
27 4 34 4 10 1 12 23 11 88 -1 77 -5 93 -37 155 -37 72 -38 73 -63 58z"/>
<path d="M2529 3307 c-8 -12 -33 -51 -54 -87 -22 -36 -54 -85 -72 -109 -32
-42 -33 -44 -17 -68 9 -14 17 -50 18 -82 1 -31 8 -68 14 -83 l11 -27 40 16 41
16 -23 40 c-12 22 -33 52 -47 67 l-25 27 50 49 c28 27 59 56 71 64 11 8 39 42
62 75 l43 59 -38 33 c-45 38 -53 39 -74 10z"/>
<path d="M2646 3254 c-13 -34 -92 -133 -123 -154 -18 -13 -33 -29 -33 -36 0
-7 -9 -18 -20 -24 -11 -6 -20 -15 -20 -20 0 -17 75 -129 87 -130 6 0 52 21
102 46 90 46 181 125 181 158 0 28 -52 101 -96 134 -57 42 -70 47 -78 26z"/>
<path d="M1265 3223 c-38 -19 -73 -59 -131 -145 -40 -61 -44 -72 -38 -108 4
-22 12 -47 19 -56 11 -16 15 -16 48 5 20 12 38 17 41 12 5 -8 -40 -42 -70 -52
-7 -3 -9 -12 -3 -26 l8 -21 110 29 c140 36 246 73 245 85 -1 5 -4 29 -8 54 -3
25 -8 54 -10 65 -2 11 -5 26 -5 33 -1 7 -5 10 -11 7 -16 -10 -76 24 -87 48
-13 27 -62 87 -71 87 -4 -1 -20 -8 -37 -17z"/>
<path d="M3679 3225 c-1 -8 -2 -18 -4 -22 -2 -9 -19 -153 -20 -167 0 -11 23
-16 105 -19 53 -3 80 -11 146 -45 45 -23 87 -42 94 -42 14 0 7 -38 -16 -84 -8
-16 -14 -33 -14 -37 0 -5 -11 -33 -25 -63 -29 -63 -31 -76 -10 -76 8 0 15 -4
15 -9 0 -4 -13 -7 -30 -5 l-29 4 5 -48 c4 -42 1 -53 -26 -91 l-32 -43 44 -39
c38 -34 44 -36 55 -22 15 20 50 133 59 191 6 38 5 42 -15 42 -11 0 -21 5 -21
11 0 6 9 9 20 6 11 -3 20 -1 20 4 0 5 -5 9 -10 9 -23 0 25 180 55 205 7 6 22
36 35 69 18 46 21 62 12 76 -7 12 -8 29 -3 48 9 28 8 29 -38 40 -39 9 -48 9
-58 -5 -19 -24 -16 -32 13 -43 37 -15 20 -31 -19 -18 -17 6 -33 12 -35 13 -2
2 3 18 11 37 l14 34 -106 29 c-58 15 -125 39 -148 52 -36 20 -43 21 -44 8z"/>
<path d="M2194 3191 c-10 -17 -26 -33 -35 -36 -16 -5 -16 -9 -1 -48 26 -69 30
-71 71 -34 20 18 46 40 59 48 12 9 20 22 17 30 -4 12 -61 55 -87 67 -3 2 -14
-11 -24 -27z"/>
<path d="M2862 3211 c-9 -5 -11 -19 -7 -43 9 -47 13 -51 70 -69 l50 -15 23 28
c13 15 20 32 17 38 -7 11 -87 53 -120 63 -11 4 -26 3 -33 -2z"/>
<path d="M1526 3134 l-29 -25 14 -86 c13 -83 15 -87 42 -90 17 -2 27 1 28 9 2
42 11 84 19 92 6 6 10 17 10 25 0 19 -40 101 -48 101 -4 0 -20 -12 -36 -26z"/>
<path d="M2060 3132 c-31 -2 -53 -11 -70 -27 -29 -28 -62 -26 -137 6 -24 10
-48 19 -53 19 -18 0 -50 -69 -50 -108 0 -38 4 -45 53 -83 28 -23 62 -46 74
-52 12 -5 20 -13 18 -18 -3 -4 3 -10 14 -14 27 -8 183 -113 199 -133 11 -15
14 -15 40 0 39 24 43 79 7 98 -21 11 -25 19 -20 40 4 19 0 32 -16 46 -21 19
-49 65 -49 82 0 5 19 12 41 15 49 6 67 20 52 39 -6 7 -16 29 -22 50 -14 41
-19 44 -81 40z"/>
<path d="M3021 3104 c-38 -37 -35 -50 14 -60 19 -3 35 -12 35 -19 0 -13 38
-28 51 -20 6 5 41 95 36 95 -1 0 -25 8 -52 18 l-50 18 -34 -32z"/>
<path d="M2249 3072 c-42 -38 -42 -39 -25 -63 15 -22 32 -71 42 -124 4 -20 30
-45 46 -45 5 0 14 14 19 30 6 17 15 30 20 30 12 0 11 -6 -7 -41 -8 -17 -14
-33 -12 -35 2 -2 21 2 41 8 38 12 46 25 26 45 -7 7 -13 41 -16 77 -3 54 -9 74
-35 111 -18 25 -37 45 -44 45 -7 0 -31 -17 -55 -38z"/>
<path d="M3160 3055 c-21 -73 10 -82 46 -13 17 32 13 43 -15 51 -15 4 -21 -3
-31 -38z"/>
<path d="M2861 3058 c-7 -18 -30 -52 -52 -75 l-41 -41 33 -49 c40 -58 56 -75
92 -98 31 -20 48 -12 73 36 13 25 12 28 -5 34 -21 6 -21 34 1 105 19 62 11 90
-32 106 -52 18 -57 17 -69 -18z"/>
<path d="M3258 3072 c-9 -4 -30 -27 -46 -51 l-30 -45 19 -35 c10 -20 19 -44
19 -53 0 -29 23 -21 65 23 22 23 49 44 59 48 29 11 31 69 4 93 -12 10 -27 18
-34 18 -7 0 -18 2 -26 4 -7 3 -21 2 -30 -2z"/>
<path d="M3370 3058 c0 -5 12 -13 26 -18 15 -6 38 -19 53 -29 14 -10 36 -22
49 -25 18 -6 22 -3 22 13 0 16 -15 24 -75 44 -41 13 -75 20 -75 15z"/>
<path d="M2980 2964 c-7 -40 -9 -77 -6 -83 4 -6 27 -11 51 -11 45 0 58 -9 108
-69 l18 -22 29 39 c26 36 27 43 19 78 -14 52 -49 91 -80 89 -31 -2 -69 14 -69
30 0 7 -13 15 -28 17 -28 4 -29 3 -42 -68z"/>
<path d="M3387 3013 c-17 -28 -8 -82 21 -133 18 -30 35 -67 39 -82 5 -24 10
-27 37 -25 l31 3 -2 88 -2 88 -57 34 c-62 38 -61 37 -67 27z"/>
<path d="M2150 2996 c-19 -7 -39 -14 -45 -14 -23 -1 -14 -25 20 -58 29 -27 36
-40 31 -59 -4 -17 -1 -28 14 -38 11 -7 21 -24 23 -37 5 -32 22 -36 63 -14 40
22 41 27 10 65 -13 15 -27 48 -31 71 -7 41 -33 99 -45 97 -3 0 -21 -6 -40 -13z"/>
<path d="M3539 2987 c-1 -32 2 -301 4 -377 2 -63 3 -65 30 -68 15 -2 27 0 28
5 2 21 9 49 29 115 15 49 20 83 15 107 -6 35 -8 81 -5 131 1 27 -8 92 -15 99
-3 2 -23 5 -45 7 -35 3 -40 0 -41 -19z"/>
<path d="M3656 3001 c-3 -5 -2 -28 2 -52 5 -24 5 -57 0 -74 -5 -18 -3 -44 4
-65 15 -46 13 -75 -11 -156 -34 -114 -34 -124 -3 -125 56 -2 98 -9 133 -20 35
-11 38 -10 72 25 33 36 34 39 25 84 -7 33 -20 57 -44 79 -30 28 -72 101 -62
107 2 2 19 13 38 26 52 34 120 102 113 112 -12 21 -100 49 -171 54 -41 2 -79
7 -83 10 -4 2 -10 0 -13 -5z"/>
<path d="M976 2842 c-42 -66 -76 -122 -76 -126 0 -4 -13 -27 -30 -51 -16 -24
-30 -49 -30 -55 0 -11 -66 -125 -143 -248 -22 -34 -37 -65 -34 -68 7 -8 148
-94 153 -94 2 0 4 6 4 13 0 9 23 14 78 16 42 2 95 5 117 6 22 1 55 3 74 4 l34
1 -7 71 c-4 39 -10 77 -12 84 -3 8 4 16 16 20 12 4 46 18 76 31 l53 23 -15 37
c-9 20 -24 44 -34 53 -11 10 -22 43 -29 90 -7 41 -25 102 -40 136 -16 35 -37
88 -47 119 -10 31 -21 56 -25 56 -4 0 -41 -53 -83 -118z"/>
<path d="M3292 2895 c-25 -25 -50 -45 -55 -45 -19 0 21 -45 40 -46 11 -1 46
-14 77 -29 48 -23 59 -26 67 -14 5 8 9 20 9 28 0 18 -73 151 -84 151 -4 0 -29
-20 -54 -45z"/>
<path d="M2713 2902 c-21 -15 -60 -38 -86 -51 -26 -13 -47 -28 -47 -32 0 -5
15 -26 34 -46 18 -21 36 -47 40 -59 10 -33 53 -86 61 -75 3 6 21 11 40 11 24
0 41 8 59 27 14 15 23 30 20 34 -2 4 11 17 30 28 l34 21 -43 43 c-23 23 -56
61 -72 84 l-31 43 -39 -28z"/>
<path d="M3898 2883 c-23 -24 -58 -53 -75 -64 l-33 -20 19 -37 c19 -36 77
-100 84 -91 10 12 46 100 58 139 7 25 19 55 27 67 16 25 11 38 -17 46 -13 3
-32 -9 -63 -40z"/>
<path d="M1520 2910 c0 -21 29 -80 39 -80 6 0 19 -10 31 -22 19 -21 146 -61
163 -51 4 2 7 15 7 29 0 17 -5 24 -20 24 -11 0 -26 12 -34 29 -22 42 -186 105
-186 71z"/>
<path d="M1322 2867 l-143 -41 6 -41 c3 -22 7 -57 10 -79 2 -21 6 -40 9 -43 4
-4 126 24 133 31 2 2 -1 15 -6 29 -10 26 -10 27 77 53 48 15 90 30 94 33 10 9
-14 101 -26 100 -6 -1 -75 -20 -154 -42z"/>
<path d="M2976 2815 c-32 -41 -33 -55 -4 -55 12 0 32 -10 44 -21 19 -18 21
-26 13 -41 -6 -11 -9 -29 -6 -39 4 -14 -7 -26 -49 -49 -59 -34 -72 -32 -125
17 -22 21 -31 23 -48 14 -11 -6 -24 -11 -28 -10 -4 1 -19 1 -32 0 -18 -1 -22
-5 -16 -18 4 -10 11 -34 16 -53 4 -18 17 -41 28 -50 11 -8 25 -35 31 -60 6
-25 17 -60 23 -78 12 -36 22 -37 95 -7 28 12 32 18 26 37 -14 45 -10 51 51 74
76 28 82 29 90 3 8 -24 -3 -39 -14 -20 -7 11 -18 11 -59 1 -54 -13 -67 -26
-48 -53 11 -13 16 -14 32 -4 10 7 64 30 119 51 55 21 104 43 109 47 6 5 4 31
-3 66 -44 201 -41 193 -67 193 -16 0 -28 9 -38 28 -21 40 -41 54 -81 58 -28 2
-38 -3 -59 -31z"/>
<path d="M4532 2826 c-14 -18 -27 -24 -53 -23 l-34 2 -33 -102 c-18 -55 -39
-103 -46 -106 -7 -3 -47 3 -89 12 -42 10 -79 15 -84 10 -10 -10 -63 0 -63 12
0 5 -6 9 -14 9 -9 0 -16 12 -18 33 -2 26 -8 33 -30 35 -24 3 -28 -1 -39 -40
-6 -24 -13 -62 -15 -86 -3 -43 -26 -128 -46 -169 -13 -26 -5 -39 41 -66 l31
-18 6 28 c5 24 20 35 105 76 l99 49 92 -7 c51 -3 102 -9 112 -12 18 -5 19 -1
12 67 -13 147 -18 230 -13 230 2 0 23 -6 45 -14 22 -8 43 -12 46 -9 3 3 34
-11 68 -32 58 -37 62 -38 72 -20 6 11 25 34 43 53 39 40 34 58 -21 72 -22 6
-51 15 -62 20 -12 5 -31 6 -42 3 -11 -2 -23 0 -26 6 -11 17 -23 13 -44 -13z"/>
<path d="M1877 2795 c-18 -43 -18 -45 0 -69 35 -49 177 -82 219 -52 18 14 18
15 -5 40 -19 20 -180 126 -192 126 -2 0 -12 -20 -22 -45z"/>
<path d="M3194 2809 c-15 -16 -16 -24 -6 -39 6 -10 19 -52 28 -92 8 -40 23
-96 31 -124 l16 -51 40 10 39 10 -5 92 c-4 82 -3 93 14 103 11 7 19 18 19 26
0 17 -74 50 -98 44 -14 -4 -24 2 -33 18 -15 29 -21 30 -45 3z"/>
<path d="M1530 2816 c0 -21 24 -96 30 -96 4 0 10 9 13 20 3 14 10 18 21 14 13
-5 8 -16 -30 -61 l-46 -54 36 -55 37 -55 61 33 c73 39 97 69 101 122 l2 39
-75 19 c-41 11 -79 25 -85 32 -13 17 -65 50 -65 42z"/>
<path d="M2492 2791 c-24 -10 -43 -21 -43 -25 0 -4 10 -24 23 -44 12 -20 24
-41 27 -47 5 -13 -37 34 -56 62 -8 13 -19 20 -24 17 -10 -6 15 -53 44 -85 17
-19 18 -22 3 -38 -21 -24 -20 -31 10 -66 14 -16 29 -36 33 -43 5 -9 17 -11 34
-7 22 6 27 13 27 36 0 23 9 36 45 61 25 18 45 36 45 40 0 35 -93 160 -117 157
-4 -1 -27 -9 -51 -18z"/>
<path d="M1415 2762 c-48 -14 -60 -21 -60 -37 0 -24 22 -24 108 1 42 13 57 22
55 33 -4 22 -33 23 -103 3z"/>
<path d="M2895 2740 c-16 -9 -35 -30 -41 -47 -12 -28 -11 -32 15 -57 35 -34
56 -35 104 -7 32 20 37 28 37 61 0 36 -2 38 -43 52 -38 12 -46 12 -72 -2z"/>
<path d="M3455 2749 c-22 -5 -55 -20 -73 -32 l-33 -22 5 -78 c2 -44 6 -80 8
-82 2 -2 37 0 78 3 l75 7 1 95 c1 94 -2 121 -15 119 -3 -1 -24 -5 -46 -10z"/>
<path d="M2363 2733 c-37 -15 -36 -13 -23 -49 9 -22 15 -26 39 -21 22 5 32 1
43 -13 8 -13 18 -17 26 -11 11 7 11 11 -1 23 -8 8 -23 30 -33 50 -19 35 -19
35 -51 21z"/>
<path d="M1475 2715 c-22 -7 -75 -23 -117 -36 -43 -12 -78 -25 -78 -28 0 -3 7
-14 15 -25 14 -18 17 -18 82 -2 102 26 153 53 153 82 0 27 0 27 -55 9z"/>
<path d="M4783 2715 c-12 -9 -20 -21 -17 -28 2 -7 -9 -25 -25 -39 -41 -37 -48
-89 -21 -164 12 -32 26 -73 31 -91 13 -43 24 -48 50 -22 11 11 36 27 55 35 18
8 39 24 45 36 7 13 17 26 23 30 5 4 12 30 13 58 5 73 -38 167 -84 186 -41 17
-44 17 -70 -1z"/>
<path d="M1765 2668 c-10 -67 -45 -103 -141 -141 -64 -25 -144 -78 -144 -96 0
-4 11 -21 25 -37 43 -50 56 -88 52 -154 -3 -43 0 -60 9 -60 35 0 144 -42 144
-56 0 -18 30 -31 39 -16 4 7 39 0 104 -23 95 -32 98 -32 108 -13 6 11 9 21 7
22 -2 1 -21 13 -43 27 -22 14 -56 31 -75 39 -19 8 -39 20 -43 27 -8 13 -98 43
-137 46 -22 1 -22 1 -25 72 -1 28 -5 64 -9 82 -7 29 -5 32 26 42 18 6 49 13
68 16 19 3 42 8 50 10 8 3 33 7 55 10 101 12 226 33 231 37 3 3 2 35 -2 72 -6
58 -9 66 -28 67 -43 2 -80 11 -100 25 -11 8 -28 14 -37 14 -9 0 -26 9 -39 20
-13 11 -37 20 -56 20 -31 0 -32 -1 -39 -52z"/>
<path d="M4475 2683 c2 -21 7 -83 10 -138 3 -55 8 -109 10 -120 2 -11 4 -24 4
-28 1 -9 78 -4 87 6 4 3 -4 20 -17 38 -24 34 -36 122 -21 143 14 18 33 96 27
106 -6 9 -69 30 -92 30 -8 0 -11 -13 -8 -37z"/>
<path d="M2234 2684 c-77 -37 -104 -68 -104 -120 0 -23 4 -45 8 -48 5 -3 15
-30 22 -61 7 -30 17 -55 21 -55 5 0 33 20 63 45 53 42 56 44 75 27 20 -17 19
-18 -24 -82 -39 -58 -42 -66 -27 -77 25 -20 39 -15 48 15 4 15 8 30 8 34 1 3
5 10 10 15 9 8 3 -37 -9 -69 -4 -11 0 -18 14 -23 25 -8 41 1 41 22 0 28 54
193 63 193 9 0 7 -8 -31 -128 -22 -71 -24 -85 -11 -93 22 -14 96 -11 96 4 0
24 14 132 19 148 3 10 -3 18 -14 21 -15 4 -18 12 -15 35 4 23 -3 41 -30 76
-20 26 -39 56 -42 68 -6 18 -12 20 -40 15 -31 -6 -34 -4 -46 29 -15 41 -27 43
-95 9z"/>
<path d="M4593 2657 c-42 -92 -47 -166 -14 -200 11 -13 21 -29 21 -35 0 -15
20 -15 55 -2 20 8 25 14 17 23 -6 7 -13 26 -16 42 -16 83 -18 106 -8 133 9 26
7 31 -18 45 -26 16 -27 15 -37 -6z"/>
<path d="M1230 2640 c-28 -8 -28 -15 5 -85 31 -66 39 -105 23 -105 -16 0 -138
-59 -138 -66 0 -15 22 -44 34 -44 7 0 31 12 52 27 31 21 52 27 105 29 39 1 81
10 100 20 50 25 145 105 141 118 -2 6 -15 29 -29 52 l-26 41 -91 -23 c-50 -13
-97 -24 -103 -24 -7 0 -21 15 -30 33 -15 28 -22 32 -43 27z"/>
<path d="M2626 2597 c-26 -25 -46 -52 -46 -64 0 -27 -21 -44 -50 -41 -29 4
-38 -18 -10 -27 11 -3 18 -10 15 -15 -3 -5 -1 -11 5 -15 6 -4 10 5 10 20 0 25
2 26 42 22 44 -5 98 9 98 23 0 5 9 12 20 15 15 5 19 13 16 31 -4 22 -43 94
-50 94 -2 0 -24 -19 -50 -43z"/>
<path d="M2718 2502 c-10 -2 -18 -7 -18 -12 0 -5 -16 -14 -35 -20 l-35 -12 0
-68 c0 -94 4 -102 49 -94 51 8 131 34 131 42 0 4 -5 23 -10 42 -6 19 -13 48
-16 64 -6 37 -12 46 -29 46 -7 0 -15 4 -17 8 -1 4 -11 6 -20 4z"/>
<path d="M2058 2484 c-4 -3 -23 -7 -45 -9 -77 -8 -279 -43 -318 -55 l-41 -12
10 -44 c13 -53 24 -55 111 -19 33 13 70 25 83 25 12 0 22 3 22 8 0 8 49 26
137 50 35 9 63 22 63 27 0 16 -16 36 -22 29z"/>
<path d="M2245 2428 c-27 -22 -52 -44 -53 -50 -2 -5 6 -18 19 -29 l22 -19 40
60 c23 36 36 64 31 69 -5 5 -31 -9 -59 -31z"/>
<path d="M2556 2407 c-3 -28 -6 -69 -6 -89 0 -37 1 -38 35 -38 l35 0 -1 63
c-1 82 -10 109 -35 113 -19 3 -22 -3 -28 -49z"/>
<path d="M4164 2415 c-147 -74 -145 -83 44 -207 l147 -96 55 10 c30 5 93 24
140 40 222 79 218 77 180 125 -11 14 -20 32 -20 40 0 8 -7 28 -16 44 -12 25
-20 30 -37 25 -12 -4 -57 -9 -99 -13 l-77 -6 -6 34 c-6 30 -10 34 -38 35 -18
1 -67 4 -109 7 -75 6 -78 5 -164 -38z"/>
<path d="M1410 2400 c-25 -11 -64 -19 -87 -19 -24 -1 -43 -5 -43 -10 0 -4 -8
-8 -18 -7 -10 0 -41 -13 -68 -30 -37 -23 -50 -37 -52 -57 -1 -14 2 -28 7 -31
4 -3 45 -7 91 -10 63 -4 86 -9 93 -21 6 -11 12 -13 21 -6 8 7 35 3 86 -14 41
-13 79 -20 83 -16 5 5 9 34 11 65 3 52 -1 63 -35 117 -21 32 -40 59 -41 58 -2
-1 -23 -9 -48 -19z"/>
<path d="M2039 2416 c-2 -2 -20 -6 -40 -9 -52 -7 -60 -13 -49 -42 6 -15 6 -25
0 -25 -5 0 -11 9 -15 19 -4 13 -12 17 -25 14 -17 -5 -19 -12 -15 -61 3 -41 -1
-65 -16 -93 l-19 -39 32 -15 c18 -8 47 -24 65 -36 l32 -20 19 38 c25 49 85
203 80 207 -1 2 -27 0 -55 -3 -29 -4 -53 -4 -53 0 0 12 30 19 81 19 53 0 54 1
39 31 -9 16 -49 26 -61 15z"/>
<path d="M2524 2388 c-11 -53 -13 -118 -3 -118 5 0 9 15 10 33 0 17 3 51 5 75
5 50 -1 55 -12 10z"/>
<path d="M4933 2395 c-64 -19 -143 -59 -148 -75 -2 -8 -1 -49 4 -90 13 -114 4
-262 -24 -394 -14 -65 -25 -123 -25 -130 0 -19 81 -99 150 -148 45 -32 91 -54
150 -71 47 -13 86 -23 88 -22 4 4 -27 205 -32 214 -2 3 -7 37 -11 76 -4 38 -8
72 -10 75 -2 3 -5 28 -8 55 -9 77 -58 389 -64 398 -2 4 2 7 9 7 8 0 6 5 -4 11
-27 15 -21 34 16 52 l35 16 28 -44 c15 -25 31 -45 36 -45 15 0 6 24 -29 71
-45 62 -74 70 -161 44z"/>
<path d="M1780 2329 c-25 -12 -58 -23 -75 -26 -36 -6 -32 -3 -37 -28 -2 -16 7
-23 52 -38 30 -9 66 -22 80 -29 14 -6 31 -12 38 -14 19 -4 44 65 38 106 -3 19
-5 38 -6 43 0 13 -45 7 -90 -14z"/>
<path d="M2103 2333 c-3 -10 -16 -41 -29 -69 -12 -29 -25 -65 -29 -82 -3 -16
-20 -51 -36 -77 -34 -54 -32 -82 8 -82 15 0 32 -8 39 -17 6 -10 14 -12 15 -7
3 6 32 0 73 -15 38 -14 72 -21 76 -17 4 4 15 31 25 58 10 28 33 77 51 111 19
33 34 64 34 68 0 4 -24 18 -54 31 -29 13 -56 31 -60 40 -3 9 -10 14 -16 10 -5
-3 -24 10 -42 30 -37 40 -46 42 -55 18z"/>
<path d="M2350 2190 c-18 -18 -55 -88 -100 -187 l-19 -43 30 -16 c17 -8 33
-13 36 -10 6 6 41 88 70 162 l16 42 59 -5 58 -6 0 32 c0 29 -2 31 -39 31 -22
0 -51 4 -66 10 -20 8 -29 6 -45 -10z"/>
<path d="M2659 2206 c-3 -4 -29 -7 -56 -7 l-51 -2 3 -46 c6 -94 17 -203 24
-229 1 -4 87 45 122 70 l27 18 -18 52 c-10 29 -24 75 -31 101 -8 27 -17 46
-20 43z"/>
<path d="M2690 2197 c0 -15 38 -146 47 -160 6 -10 62 63 63 81 0 6 5 12 11 12
6 0 27 14 46 30 18 17 39 30 46 31 7 0 3 4 -7 8 -11 4 -61 8 -113 10 -76 2
-93 0 -93 -12z"/>
<path d="M4720 2203 c-8 -2 -64 -22 -125 -44 -60 -21 -127 -41 -147 -43 -73
-9 -74 -20 -7 -71 28 -21 54 -46 58 -54 3 -9 41 -61 84 -117 72 -93 80 -100
108 -96 33 5 45 22 54 73 3 19 8 48 12 64 10 45 11 225 1 231 -4 3 -8 18 -8
35 0 29 -3 31 -30 22z"/>
<path d="M2519 2173 c-1 -10 -2 -25 -3 -33 -1 -11 -17 -16 -62 -18 l-61 -3
-32 -82 c-17 -45 -32 -88 -33 -96 -4 -21 135 -50 190 -38 l43 8 -6 47 c-6 49
-13 144 -14 200 -1 33 -20 46 -22 15z"/>
<path d="M3388 2063 c-9 -10 -23 -33 -32 -51 -16 -31 -16 -37 -1 -90 9 -31 26
-79 39 -107 13 -27 41 -90 62 -138 l38 -88 34 6 c74 14 78 18 100 106 16 65
18 86 9 102 -9 15 -9 21 1 24 21 8 44 62 36 86 -4 12 -7 34 -6 48 1 25 -7 29
-111 67 -156 56 -151 55 -169 35z"/>
<path d="M5330 1962 c-22 -18 -22 -21 -10 -70 l13 -51 39 20 38 20 -27 47
c-14 26 -27 48 -28 50 -1 1 -12 -6 -25 -16z"/>
<path d="M1037 1959 c-15 -4 -44 -10 -64 -12 -19 -3 -44 -14 -55 -24 -27 -28
-80 -174 -67 -189 10 -12 47 -23 179 -53 47 -11 107 -27 133 -37 41 -14 50
-15 61 -3 15 16 43 86 50 124 3 15 15 56 27 92 14 42 18 68 12 74 -6 6 -46 13
-89 15 -43 3 -97 9 -119 13 -22 4 -53 4 -68 0z"/>
<path d="M5174 1940 c-11 -4 -34 -6 -51 -5 -18 1 -33 -2 -33 -7 0 -33 52 -397
61 -428 11 -37 11 -37 51 -28 22 4 62 20 89 34 27 13 55 22 60 18 23 -14 26
21 8 91 -11 41 -21 95 -24 122 -4 42 -41 181 -51 192 -8 9 -92 17 -110 11z"/>
<path d="M1390 1873 c-8 -21 -13 -42 -12 -47 2 -4 -18 -58 -43 -118 -25 -61
-45 -114 -45 -118 0 -14 89 -55 98 -45 10 11 88 187 121 272 l21 53 -28 14
c-15 8 -43 17 -63 21 -33 6 -35 5 -49 -32z"/>
<path d="M3260 1853 c-14 -14 -54 -44 -90 -68 -75 -49 -343 -190 -380 -200
-14 -3 -50 -15 -81 -26 l-57 -21 -7 -61 c-4 -34 -9 -71 -11 -82 -18 -96 -17
-104 13 -116 39 -15 262 -5 299 14 16 8 52 22 81 31 41 14 69 34 135 100 l83
83 28 109 c15 60 32 122 37 139 6 19 6 33 0 39 -6 6 -10 27 -10 48 0 44 -6 46
-40 11z"/>
<path d="M1522 1792 c-12 -38 -22 -71 -22 -74 0 -2 19 -11 43 -18 23 -7 60
-20 82 -30 46 -21 107 -41 111 -38 4 4 33 122 31 124 -2 1 -106 58 -167 90
-45 25 -55 18 -78 -54z"/>
<path d="M718 1831 c-20 -10 -63 -28 -95 -41 -66 -26 -153 -78 -153 -91 0 -5
0 -12 -1 -16 -1 -4 12 -14 27 -23 16 -8 49 -27 74 -42 77 -44 86 -44 100 -1 6
21 26 70 44 108 30 63 51 125 43 125 -1 0 -19 -8 -39 -19z"/>
<path d="M1766 1648 c-15 -51 -41 -135 -58 -186 -17 -51 -28 -95 -27 -96 2 -2
27 -10 54 -18 67 -19 145 -16 157 6 5 9 19 25 30 36 21 20 16 25 -19 21 -6 -1
-15 4 -18 10 -5 8 4 9 29 6 28 -4 41 0 55 15 21 22 81 168 81 195 0 14 -26 26
-118 57 -64 21 -122 40 -128 42 -6 3 -22 -35 -38 -88z"/>
<path d="M800 1632 c-25 -66 -26 -67 -60 -65 -34 2 -33 1 18 -22 28 -13 52
-28 52 -33 0 -14 98 -12 110 3 8 9 3 33 -16 86 -30 82 -36 92 -61 95 -14 2
-24 -13 -43 -64z"/>
<path d="M1465 1654 c-50 -121 -55 -164 -19 -164 9 0 37 -15 63 -34 49 -36 92
-59 128 -70 26 -8 30 -1 69 129 27 93 28 95 13 95 -7 0 -51 15 -99 34 -136 54
-136 54 -155 10z"/>
<path d="M910 1673 c0 -16 45 -129 54 -135 6 -4 18 -6 26 -4 8 2 27 7 43 10
27 6 27 7 12 36 -8 16 -15 38 -15 49 0 22 -14 34 -45 38 -11 1 -32 5 -47 8
-16 2 -28 2 -28 -2z"/>
<path d="M1040 1650 c0 -5 8 -25 17 -45 15 -32 21 -36 48 -32 17 2 42 10 55
17 23 12 23 13 -21 33 -59 27 -99 38 -99 27z"/>
<path d="M2053 1575 c-15 -47 -18 -67 -10 -69 7 -2 37 -8 67 -14 30 -5 61 -12
69 -14 8 -2 18 14 27 47 21 78 20 80 -38 93 -29 6 -62 14 -73 17 -18 5 -23 -2
-42 -60z"/>
<path d="M2259 1578 c0 -2 -3 -14 -5 -28 -3 -14 -21 -71 -41 -128 -20 -56 -34
-105 -31 -107 3 -3 24 -6 46 -8 32 -1 41 -5 37 -17 -3 -10 -1 -10 9 3 11 15
15 15 25 3 7 -8 20 -15 29 -16 39 -2 132 -1 196 3 83 5 81 1 91 150 l7 107
-29 1 c-15 0 -39 2 -53 3 -14 2 -59 6 -100 10 -42 3 -91 11 -110 16 -33 9 -69
13 -71 8z"/>
<path d="M1981 1418 c-28 -33 -51 -66 -51 -73 0 -8 23 -15 68 -19 37 -4 77 -9
89 -12 19 -5 27 4 57 64 l35 70 -47 11 c-101 23 -96 25 -151 -41z"/>
</g>
</svg>
